<svg width="1533" height="2181" viewBox="0 0 1533 2181" fill="none" xmlns="http://www.w3.org/2000/svg">
<path d="M420 894C462 824 522 764 600 714C678 664 773 639 885 639C1009 639 1120 670 1218 732C1316 794 1393 883 1449 999C1505 1113 1533 1250 1533 1410C1533 1568 1504 1705 1446 1821C1390 1935 1313 2024 1215 2088C1119 2150 1009 2181 885 2181C795 2181 712 2160 636 2118C560 2076 505 2027 471 1971L444 2160H2.23517e-06V-8.58307e-05H492V894H420ZM1002 1410C1002 1316 978 1240 930 1182C884 1124 823 1095 747 1095C699 1095 655 1108 615 1134C577 1158 547 1193 525 1239C503 1285 492 1342 492 1410C492 1478 503 1535 525 1581C547 1627 577 1662 615 1686C655 1710 699 1722 747 1722C823 1722 884 1694 930 1638C978 1580 1002 1504 1002 1410Z" fill="#19AEDC"/>
</svg>
